Coordinates
version=1
nRows=17
nColumns=40
inDegrees=yes

Units are S.I. units (second, meters, Newtons, ...)
Angles are in degrees.

endheader
time	pelvis_tilt	pelvis_list	pelvis_rotation	pelvis_tx	pelvis_ty	pelvis_tz	hip_flexion_r	hip_adduction_r	hip_rotation_r	knee_angle_r	knee_angle_r_beta	ankle_angle_r	subtalar_angle_r	mtp_angle_r	hip_flexion_l	hip_adduction_l	hip_rotation_l	knee_angle_l	knee_angle_l_beta	ankle_angle_l	subtalar_angle_l	mtp_angle_l	lumbar_extension	lumbar_bending	lumbar_rotation	arm_flex_r	arm_add_r	arm_rot_r	elbow_flex_r	pro_sup_r	wrist_flex_r	wrist_dev_r	arm_flex_l	arm_add_l	arm_rot_l	elbow_flex_l	pro_sup_l	wrist_flex_l	wrist_dev_l
     15.42000000	     -1.79828433	     -4.43567257	      4.31998213	      1.04033146	      0.93166874	      0.48459619	     10.85771742	      1.51215133	    -15.98900276	     18.97457686	     18.97457686	     11.71137732	      0.48815531	     -3.69574690	     27.71273296	    -13.94697926	      0.40973024	     60.93898526	     60.93898526	      8.86498069	    -15.70446949	      7.49219296	     -9.75539589	      5.62385102	      2.81110164	     17.79890382	    -23.50632870	     -4.52657594	     65.64052306	     42.66548914	      0.00000000	      0.00000000	      1.67314030	    -10.52424068	     -2.70631959	     27.78663067	     42.80738531	      0.00000000	      0.00000000
     15.43335714	     -1.90193962	     -4.30327489	      4.60972914	      1.03898932	      0.93221430	      0.48460703	     10.37657743	      1.45310708	    -16.15130800	     18.45504416	     18.45504416	     11.77437547	      0.53298540	     -3.66539404	     28.69722836	    -13.65535996	      0.27426920	     58.52952496	     58.52952496	      9.01823049	    -16.03417329	      7.53913680	     -9.79729788	      5.55318894	      3.03296744	     19.12928774	    -23.62091559	     -4.81770582	     66.69687420	     42.68160020	      0.00000000	      0.00000000	      0.65062831	    -10.12279600	     -2.59224644	     27.54037672	     42.81569499	      0.00000000	      0.00000000
     15.44671429	     -2.01882329	     -4.22506127	      4.89782273	      1.03762231	      0.93264104	      0.48458265	      9.93651713	      1.42505287	    -16.41476400	     17.97700421	     17.97700421	     11.78762718	      0.72545406	     -3.77650386	     29.52341909	    -13.38718570	      0.13102907	     55.80178155	     55.80178155	      8.97982006	    -16.29264736	      7.27415862	     -9.85245932	      5.54387007	      3.16514721	     20.50156973	    -23.73956041	     -5.12782004	     67.92441615	     42.72415127	      0.00000000	      0.00000000	     -0.56606849	     -9.76688823	     -2.36591163	     27.68894746	     42.83455440	      0.00000000	      0.00000000
     15.46007143	     -2.21874026	     -4.08803782	      5.14571891	      1.03624110	      0.93280667	      0.48443310	      9.65209036	      1.32647884	    -16.52812173	     17.61899217	     17.61899217	     11.92526819	      0.70434931	     -3.80247872	     30.26333708	    -13.04371636	     -0.12295746	     52.86026293	     52.86026293	      9.17675880	    -16.22211823	      7.49736565	     -9.76379834	      5.48210296	      3.65020077	     21.78294453	    -24.10790713	     -5.37417393	     68.57734579	     42.73239319	      0.00000000	      0.00000000	     -1.51310614	     -9.33047282	     -2.24845447	     27.54482156	     42.81777540	      0.00000000	      0.00000000
     15.47342857	     -2.26560699	     -3.97289120	      5.42110035	      1.03492714	      0.93316485	      0.48415852	      9.12498275	      1.24383725	    -16.85978579	     17.12005831	     17.12005831	     11.87695593	      0.98532335	     -4.26967296	     30.60381875	    -12.62727590	     -0.25075240	     49.49230406	     49.49230406	      8.76443768	    -16.43770145	      6.68084932	     -9.92998665	      5.43505836	      3.55424412	     23.25559598	    -23.94412492	     -5.56804898	     69.81922629	     42.88894541	      0.00000000	      0.00000000	     -3.24788948	     -9.25146482	     -1.30109448	     28.95383579	     42.83662818	      0.00000000	      0.00000000
     15.48678571	     -2.42599765	     -3.87992289	      5.65490517	      1.03344767	      0.93326117	      0.48380557	      8.81843154	      1.18958801	    -16.95409639	     16.76766680	     16.76766680	     11.96949459	      0.90148612	     -4.26126952	     31.00152106	    -12.20913797	     -0.38743717	     46.04704867	     46.04704867	      8.85703325	    -16.15809309	      7.11746966	     -9.94187657	      5.39196049	      3.82800153	     24.49415413	    -24.07781382	     -5.74717763	     70.45641081	     42.90602680	      0.00000000	      0.00000000	     -4.10110175	     -8.88346998	     -1.06777311	     28.71325152	     42.82009096	      0.00000000	      0.00000000
     15.50014286	     -2.60164906	     -3.79955124	      5.89054111	      1.03191582	      0.93320981	      0.48322337	      8.55777349	      1.12180936	    -17.06180020	     16.46046374	     16.46046374	     12.07232457	      0.88826741	     -4.30203420	     31.30854647	    -11.74190045	     -0.46115240	     42.45013999	     42.45013999	      8.89286038	    -15.66757932	      7.50131535	     -9.93452399	      5.37830786	      4.02176133	     25.76130179	    -24.11265505	     -5.93943714	     71.16548894	     42.92172824	      0.00000000	      0.00000000	     -4.97662353	     -8.51006701	     -0.82738360	     28.57421806	     42.80141128	      0.00000000	      0.00000000
     15.51350000	     -2.78647053	     -3.76022567	      6.12221762	      1.03034445	      0.93299355	      0.48251146	      8.30634780	      1.08527597	    -17.20877384	     16.13453112	     16.13453112	     12.08408563	      0.88342293	     -4.65991584	     31.45265600	    -11.28016506	     -0.49034556	     38.55579153	     38.55579153	      8.17975353	    -15.20293247	      6.20586344	     -9.94044759	      5.40733723	      4.01200760	     27.21351565	    -23.91302887	     -6.09294496	     71.68530566	     43.22694582	      0.00000000	      0.00000000	     -6.32629043	     -8.46111039	      0.92640313	     29.57477993	     42.88715743	      0.00000000	      0.00000000
     15.52685714	     -3.05271548	     -3.71665518	      6.32210141	      1.02862018	      0.93256244	      0.48163389	      8.22792254	      1.01259049	    -17.27954350	     15.95545142	     15.95545142	     12.24346075	      0.78406103	     -4.70820075	     31.68791408	    -10.80596663	     -0.55491136	     34.82956709	     34.82956709	      8.20042361	    -14.06358202	      6.71953218	     -9.85864906	      5.39745001	      4.27972059	     28.24377986	    -23.96589584	     -6.23254915	     72.25846719	     43.23384431	      0.00000000	      0.00000000	     -6.96176124	     -8.04283325	      1.06208144	     29.34922069	     42.88061476	      0.00000000	      0.00000000
     15.54021429	     -3.23610344	     -3.68890362	      6.50884742	      1.02697115	      0.93218822	      0.48065454	      8.04689935	      0.96327800	    -17.34961731	     15.76535513	     15.76535513	     12.41344597	      0.68942147	     -4.77573695	     31.71341808	    -10.34330169	     -0.61798834	     31.07559422	     31.07559422	      8.10971718	    -12.70038278	      7.16434407	     -9.87753506	      5.40443920	      4.40298787	     29.29088864	    -23.79340741	     -6.38049630	     72.89711403	     43.24383583	      0.00000000	      0.00000000	     -7.59865442	     -7.68475379	      1.20795451	     29.11892974	     42.87931679	      0.00000000	      0.00000000
     15.55357143	     -3.49598909	     -3.69487557	      6.68950185	      1.02527796	      0.93160497	      0.47951680	      7.95532564	      0.93128529	    -17.39889747	     15.57398449	     15.57398449	     12.56977544	      0.58390000	     -4.85009038	     31.79598717	     -9.89496811	     -0.68195984	     27.50973691	     27.50973691	      7.92626610	    -11.10947140	      7.59838902	     -9.80017147	      5.42774946	      4.55066490	     30.25983077	    -23.63968336	     -6.51315078	     73.41986773	     43.25180880	      0.00000000	      0.00000000	     -8.12384168	     -7.30460204	      1.32763892	     28.93918201	     42.87666244	      0.00000000	      0.00000000
     15.56692857	     -3.70425189	     -3.75034069	      6.86830466	      1.02365744	      0.93098333	      0.47828638	      7.81936959	      0.95415312	    -17.45302423	     15.40956769	     15.40956769	     12.74477648	      0.45877711	     -4.94679372	     31.81311499	     -9.51150596	     -0.79406442	     24.24508145	     24.24508145	      7.62316205	     -9.39617197	      8.04886363	     -9.75615864	      5.49752331	      4.66465763	     31.17164689	    -23.41315602	     -6.63052990	     73.87902277	     43.25976398	      0.00000000	      0.00000000	     -8.58540349	     -6.95351308	      1.43408989	     28.75052305	     42.87543653	      0.00000000	      0.00000000
     15.58028571	     -3.81460152	     -3.74250016	      7.02022841	      1.02223066	      0.93052866	      0.47692569	      7.52798320	      0.93032602	    -17.43314627	     15.18786975	     15.18786975	     12.92620606	      0.33264466	     -5.06678147	     31.66708066	     -9.10642789	     -1.08177191	     21.36090487	     21.36090487	      7.26732739	     -7.59533750	      8.42076481	     -9.81914278	      5.50412009	      4.66441761	     32.02820187	    -22.96958780	     -6.74091921	     74.26199566	     43.27632020	      0.00000000	      0.00000000	     -9.01595157	     -6.68129452	      1.54226554	     28.49015250	     42.88430355	      0.00000000	      0.00000000
     15.59364286	     -3.97646891	     -3.80453138	      7.16135337	      1.02087567	      0.92991728	      0.47547940	      7.30108814	      0.96620910	    -17.42722264	     14.97625154	     14.97625154	     13.09782894	      0.21212313	     -5.18843916	     31.66602469	     -8.76809924	     -1.36156334	     19.11117525	     19.11117525	      6.86518489	     -5.97313769	      8.76427911	     -9.77415833	      5.54459098	      4.70727919	     32.76157334	    -22.56875190	     -6.81383085	     74.50781524	     43.29242672	      0.00000000	      0.00000000	     -9.30871480	     -6.41615546	      1.62920139	     28.25925267	     42.89423840	      0.00000000	      0.00000000
     15.60700000	     -4.16874389	     -3.98015719	      7.32647362	      1.01959598	      0.92911035	      0.47389049	      7.15200435	      1.09391469	    -17.48143809	     14.84612074	     14.84612074	     13.28963206	      0.09965177	     -5.29290763	     31.85877578	     -8.51866493	     -1.52083354	     17.65037939	     17.65037939	      6.46516943	     -4.78019512	      9.01215273	     -9.64981760	      5.72142354	      4.81563168	     33.44911632	    -22.36798614	     -6.88242605	     74.70764922	     43.30302878	      0.00000000	      0.00000000	     -9.47523153	     -6.15532040	      1.69232878	     28.12950546	     42.89953727	      0.00000000	      0.00000000
     15.62035714	     -4.28418491	     -3.95460846	      7.42180708	      1.01865285	      0.92857769	      0.47223673	      6.81991166	      1.03895919	    -17.42470695	     14.60881035	     14.60881035	     13.51725185	      0.00942129	     -5.38515588	     31.80795598	     -8.14386442	     -1.92875711	     16.64210862	     16.64210862	      6.06083163	     -3.77603604	      9.15488277	     -9.57991376	      5.64844170	      4.85727301	     33.91915887	    -21.87316452	     -6.86467208	     74.83256811	     43.31126601	      0.00000000	      0.00000000	     -9.55441875	     -6.00126084	      1.75125722	     27.92552533	     42.90681522	      0.00000000	      0.00000000
     15.63371429	     -4.33324907	     -4.04560394	      7.52605337	      1.01790462	      0.92790799	      0.47047720	      6.51232954	      1.07647863	    -17.41843815	     14.57961364	     14.57961364	     13.83659585	     -0.05130941	     -5.48332195	     31.92558516	     -7.87347328	     -1.99708449	     16.62284076	     16.62284076	      5.75346671	     -3.61201423	      9.23387457	     -9.52361235	      5.66927046	      5.05212306	     34.01410950	    -21.70769564	     -6.82194825	     74.85433713	     43.31085240	      0.00000000	      0.00000000	     -9.61992335	     -5.97348343	      1.75671022	     27.87985440	     42.90725289	      0.00000000	      0.00000000
